HIERARCHY
ROOT Hips
{
	OFFSET 0.000000 0.000000 0.000000
	CHANNELS 6 Xposition Yposition Zposition Zrotation Yrotation Xrotation 
	JOINT LHipJoint
	{
		OFFSET 0.000000 0.000000 0.000000
		CHANNELS 3 Zrotation Yrotation Xrotation
		JOINT LeftUpLeg
		{
			OFFSET 1.363060 -1.794630 0.839290
			CHANNELS 3 Zrotation Yrotation Xrotation
			JOINT LeftLeg
			{
				OFFSET 2.448110 -6.726130 0.000000
				CHANNELS 3 Zrotation Yrotation Xrotation
				JOINT LeftFoot
				{
					OFFSET 2.562200 -7.039590 0.000000
					CHANNELS 3 Zrotation Yrotation Xrotation
					JOINT LeftToeBase
					{
						OFFSET 0.157640 -0.433110 2.322550
						CHANNELS 3 Zrotation Yrotation Xrotation
						End Site
						{
							OFFSET 0.000000 0.000000 0.000000
						}
					}
				}
			}
		}
	}
	JOINT RHipJoint
	{
		OFFSET 0.000000 0.000000 0.000000
		CHANNELS 3 Zrotation Yrotation Xrotation
		JOINT RightUpLeg
		{
			OFFSET -1.305520 -1.794630 0.839290
			CHANNELS 3 Zrotation Yrotation Xrotation
			JOINT RightLeg
			{
				OFFSET -2.542530 -6.985550 0.000000
				CHANNELS 3 Zrotation Yrotation Xrotation
				JOINT RightFoot
				{
					OFFSET -2.568260 -7.056230 0.000000
					CHANNELS 3 Zrotation Yrotation Xrotation
					JOINT RightToeBase
					{
						OFFSET -0.164730 -0.452590 2.363150
						CHANNELS 3 Zrotation Yrotation Xrotation
						End Site
						{
							OFFSET 0.000000 0.000000 0.000000
						}
					}
				}
			}
		}
	}
	JOINT LowerBack
	{
		OFFSET 0.000000 0.000000 0.000000
		CHANNELS 3 Zrotation Yrotation Xrotation
		JOINT Spine
		{
			OFFSET 0.028270 2.035590 -0.193380
			CHANNELS 3 Zrotation Yrotation Xrotation
			JOINT Spine1
			{
				OFFSET 0.056720 2.048850 -0.042750
				CHANNELS 3 Zrotation Yrotation Xrotation
				JOINT Neck
				{
					OFFSET 0.000000 0.000000 0.000000
					CHANNELS 3 Zrotation Yrotation Xrotation
					JOINT Neck1
					{
						OFFSET -0.054170 1.746240 0.172020
						CHANNELS 3 Zrotation Yrotation Xrotation
						JOINT Head
						{
							OFFSET 0.104070 1.761360 -0.123970
							CHANNELS 3 Zrotation Yrotation Xrotation
							End Site
							{
								OFFSET 0.000000 0.000000 0.000000
							}
						}
					}
				}
				JOINT LeftShoulder
				{
					OFFSET 0.000000 0.000000 0.000000
					CHANNELS 3 Zrotation Yrotation Xrotation
					JOINT LeftArm
					{
						OFFSET 3.362410 1.200890 -0.311210
						CHANNELS 3 Zrotation Yrotation Xrotation
						JOINT LeftForeArm
						{
							OFFSET 4.983000 -0.000000 -0.000000
							CHANNELS 3 Zrotation Yrotation Xrotation
							JOINT LeftHand
							{
								OFFSET 3.483560 -0.000000 -0.000000
								CHANNELS 3 Zrotation Yrotation Xrotation
								JOINT LeftFingerBase
								{
									OFFSET 0.000000 0.000000 0.000000
									CHANNELS 3 Zrotation Yrotation Xrotation
									JOINT LeftHandIndex1
									{
										OFFSET 0.715260 -0.000000 -0.000000
										CHANNELS 3 Zrotation Yrotation Xrotation
										End Site
										{
											OFFSET 0.000000 0.000000 0.000000
										}
									}
								}
								JOINT LThumb
								{
									OFFSET 0.000000 0.000000 0.000000
									CHANNELS 3 Zrotation Yrotation Xrotation
									End Site
									{
										OFFSET 0.000000 0.000000 0.000000
									}
								}
							}
						}
					}
				}
				JOINT RightShoulder
				{
					OFFSET 0.000000 0.000000 0.000000
					CHANNELS 3 Zrotation Yrotation Xrotation
					JOINT RightArm
					{
						OFFSET -3.136600 1.374050 -0.404650
						CHANNELS 3 Zrotation Yrotation Xrotation
						JOINT RightForeArm
						{
							OFFSET -5.241900 -0.000000 -0.000000
							CHANNELS 3 Zrotation Yrotation Xrotation
							JOINT RightHand
							{
								OFFSET -3.444170 -0.000000 -0.000000
								CHANNELS 3 Zrotation Yrotation Xrotation
								JOINT RightFingerBase
								{
									OFFSET 0.000000 0.000000 0.000000
									CHANNELS 3 Zrotation Yrotation Xrotation
									JOINT RightHandIndex1
									{
										OFFSET -0.622530 -0.000000 -0.000000
										CHANNELS 3 Zrotation Yrotation Xrotation
										End Site
										{
											OFFSET 0.000000 0.000000 0.000000
										}
									}
								}
								JOINT RThumb
								{
									OFFSET 0.000000 0.000000 0.000000
									CHANNELS 3 Zrotation Yrotation Xrotation
									End Site
									{
										OFFSET 0.000000 0.000000 0.000000
									}
								}
							}
						}
					}
				}
			}
		}
	}
}
MOTION
Frames: 8
Frame Time: 0.008333
9.994729 17.869476 34.635008 179.396986 -2.126792 -156.427342 9.226655 1.449354 -1.749230 -26.149998 -18.988231 -16.744987 -1.002349 5.410319 12.568915 0.485950 -3.822398 -17.516658 2.966900 -10.641300 -31.079500 -13.597500 -3.097335 -1.638776 32.047590 17.029454 -15.672953 1.076095 -4.796605 11.486531 -1.315897 0.159876 -22.547236 -2.658400 10.120400 -29.367500 -2.875282 -0.354538 -22.444380 1.560115 -1.040980 -5.296618 -0.655907 -1.315972 13.270092 -12.034647 0.813311 -1.916986 13.136942 -2.232517 17.258086 3.157500 -0.464300 3.013400 15.240809 -1.559483 0.928966 -105.519514 -3.371083 0.322713 8.267905 -7.965586 -0.677501 -0.858981 1.888839 26.635297 17.348169 -10.732283 -4.086800 -7.125000 0.000000 0.000000 -5.738000 17.349800 3.785000 -10.831053 -0.568985 0.016376 98.169799 -2.836489 5.712991 -11.926332 21.820723 -3.071288 0.912180 4.205537 3.869614 -12.617477 -52.862465 11.173300 7.125000 0.000000 0.000000 83.156200 -76.793600 -69.504100 
10.009289 17.870133 34.624170 179.383017 -2.348261 -156.605664 9.221243 1.458711 -1.741067 -26.083703 -19.243492 -16.353109 -1.005780 5.364847 12.515496 0.508290 -3.805475 -17.682747 2.703600 -10.199100 -29.623800 -13.620632 -3.084812 -1.645569 32.218519 17.411285 -15.014324 1.122511 -4.625317 11.142621 -1.319469 -0.659616 -22.668181 -2.609300 10.033900 -29.086600 -3.203842 -0.493513 -22.381554 1.600179 -1.114612 -5.252552 -0.347529 -1.370229 13.424132 -11.907564 0.794155 -1.901852 13.131696 -2.252117 17.120203 3.097800 -0.469100 2.950200 15.254811 -1.571853 0.933133 -105.463356 -3.418354 1.317484 8.300597 -7.984064 -0.684670 -0.875723 1.853461 25.680661 17.172424 -10.718707 -4.032700 -7.125000 0.000000 0.000000 -5.875700 17.392500 3.871200 -10.784463 -0.568602 0.016598 98.038211 -2.672747 4.988896 -11.887346 21.669030 -2.996381 0.624784 4.086162 3.205947 -8.525018 -50.517962 7.298400 7.125000 0.000000 0.000000 73.934700 -74.966200 -58.481400 
9.991554 17.853493 34.643656 179.489630 -2.033767 -155.803456 9.267185 1.349673 -1.790872 -25.758623 -19.450991 -17.452574 -1.018866 5.547664 12.737911 0.537383 -3.538133 -17.792708 2.697300 -10.188200 -29.588300 -13.649196 -3.000592 -1.547280 31.849073 17.831197 -16.482638 1.102298 -4.976064 11.645664 -1.299682 -0.224632 -22.688348 -2.603900 10.024300 -29.055600 -3.006949 -0.257951 -23.087500 1.575739 -0.929986 -5.327127 -0.460732 -1.291722 13.459283 -11.838584 0.782461 -1.904106 13.131611 -2.258386 16.974836 3.079200 -0.474600 2.896000 15.261806 -1.587558 0.919910 -105.485143 -3.486557 1.671836 8.331812 -8.021229 -0.692975 -0.858219 1.853445 25.438550 17.009001 -10.865019 -4.042800 -7.125000 0.000000 0.000000 -6.007000 17.239700 3.978900 -10.807780 -0.582330 -0.005459 98.086668 -2.739797 5.765357 -12.110650 22.016308 -3.092363 0.593312 4.221224 3.451941 -7.930996 -53.190857 6.989300 7.125000 0.000000 0.000000 84.600000 -75.032200 -68.980600 
9.987394 17.843312 34.642561 179.552412 -1.922197 -155.543852 9.281117 1.312854 -1.799199 -25.611708 -19.725571 -17.631117 -1.041612 5.556192 12.689030 0.591900 -3.201977 -17.964871 2.711600 -10.212800 -29.668600 -13.659278 -2.976199 -1.521706 31.789305 17.972455 -16.854018 1.098918 -5.053379 11.735465 -1.297892 -0.040818 -22.714640 -2.583700 9.988500 -28.939500 -2.984066 -0.161427 -23.395187 1.572431 -0.837312 -5.343114 -0.431016 -1.255362 13.535107 -11.811439 0.774383 -1.910307 13.139850 -2.259464 16.840104 3.068000 -0.476900 2.845200 15.266453 -1.592716 0.915491 -105.506891 -3.502776 2.076934 8.352630 -8.051956 -0.704009 -0.821335 1.906630 25.199654 16.882333 -11.464708 -4.226100 -7.125000 0.000000 0.000000 -6.117900 16.554700 4.145000 -10.807657 -0.597427 -0.012506 98.105730 -2.760856 5.932477 -12.166036 22.095674 -3.104791 0.528570 4.305437 3.405908 -7.013887 -54.774982 6.268400 7.125000 0.000000 0.000000 90.802500 -74.636700 -74.886400 
9.980169 17.824810 34.642561 179.939124 -1.954086 -155.233254 9.285074 1.277989 -1.849289 -25.050656 -19.284851 -18.217854 -1.029930 5.621506 12.798757 0.540608 -3.512077 -17.870748 2.714700 -10.218200 -29.686200 -13.691052 -2.955554 -1.459765 32.111992 18.261171 -17.265416 1.105581 -5.141160 11.804183 -1.282975 0.099574 -22.671206 -2.529300 9.890900 -28.624100 -2.520789 -0.002407 -23.767617 1.608366 -0.822980 -5.373908 -0.512222 -1.232590 13.607598 -11.813200 0.788629 -1.897265 13.107075 -2.223592 16.677202 3.059500 -0.465600 2.776500 15.339032 -1.595529 0.913058 -105.628420 -3.530007 2.715008 8.328118 -8.172755 -0.768555 -0.505181 3.361558 24.458886 19.465763 -23.730010 -9.861900 -7.125000 0.000000 0.000000 -5.165800 1.971300 5.005700 -10.825454 -0.616853 -0.019245 98.050559 -2.788246 5.887688 -12.127325 22.034910 -3.058489 0.366084 4.363114 3.069463 -4.678536 -55.817612 4.187400 7.125000 0.000000 0.000000 94.525200 -73.710100 -77.781300 
9.980606 17.823278 34.661938 -179.628716 -2.408149 -155.385455 9.268022 1.284028 -1.869168 -24.450340 -18.820025 -18.485421 -0.986619 5.705381 13.047841 0.430844 -4.174535 -17.585847 2.584300 -9.989700 -28.943300 -13.721004 -2.975993 -1.447975 32.820011 18.253797 -17.070928 1.121044 -5.130443 11.796959 -1.280690 -0.153713 -22.679568 -2.507000 9.850600 -28.494300 -1.986340 0.003079 -23.355053 1.694776 -0.997281 -5.392776 -0.655577 -1.272093 13.376749 -11.805698 0.782919 -1.905143 13.105507 -2.206312 16.507784 3.065800 -0.463200 2.734100 15.289146 -1.606663 0.889715 -105.548564 -3.526704 3.555489 8.476004 -8.150959 -0.717857 -0.984554 1.774116 23.566734 17.349206 -10.474828 -3.976400 -7.125000 0.000000 0.000000 -5.733900 17.693700 3.738800 -10.796591 -0.590987 -0.015477 98.040594 -2.737540 5.549245 -11.982235 21.825330 -3.016638 0.424449 4.275163 2.628841 -6.147646 -53.967228 5.436600 7.125000 0.000000 0.000000 87.735100 -74.374500 -71.421000 
9.972286 17.818570 34.659749 -179.300917 -2.493319 -155.546965 9.255396 1.296194 -1.871271 -24.109776 -18.786986 -18.277928 -0.993092 5.647972 12.955387 0.442643 -4.120307 -17.594946 2.467800 -9.779200 -28.264500 -13.728211 -3.003734 -1.457600 33.276368 18.126083 -16.896471 1.120523 -5.126890 11.829640 -1.280284 -0.155898 -22.646341 -2.588300 9.996700 -28.966000 -1.527085 0.129833 -23.236278 1.711441 -0.969194 -5.368480 -0.823654 -1.228404 13.383729 -11.737488 0.770512 -1.892495 13.086232 -2.212330 16.370946 3.048200 -0.470200 2.681300 15.305360 -1.612324 0.882507 -105.521588 -3.536477 4.276071 8.576875 -8.290682 -0.743195 -0.994049 1.775670 22.804580 17.336667 -10.748536 -4.069400 -7.125000 0.000000 0.000000 -5.752700 17.390400 3.789600 -10.800813 -0.595390 -0.006426 98.067405 -2.719410 5.330773 -11.885587 21.703672 -2.997079 0.510197 4.161032 2.347190 -7.744211 -51.821876 6.721200 7.125000 0.000000 0.000000 79.234200 -74.873800 -63.477600 
9.972834 17.817147 34.660734 -179.249468 -2.500963 -155.560157 9.253479 1.301294 -1.880276 -24.076821 -18.625065 -18.290603 -0.987870 5.632131 12.930236 0.417222 -4.271038 -17.519591 2.427900 -9.705500 -28.028300 -13.735000 -3.000535 -1.447861 33.376604 18.231727 -16.824085 1.127099 -5.118132 11.807315 -1.282244 -0.253867 -22.679101 -2.588300 9.996800 -28.966300 -1.493307 0.151273 -23.215110 1.712797 -0.953545 -5.368964 -0.819318 -1.220142 13.365804 -11.676564 0.776743 -1.853471 13.083289 -2.203808 16.224083 3.027000 -0.469600 2.619600 15.314189 -1.632576 0.877000 -105.500923 -3.623340 4.515905 8.621887 -8.355638 -0.753795 -0.999698 1.763329 22.485164 17.314990 -10.753137 -4.062900 -7.125000 0.000000 0.000000 -5.772400 17.392400 3.802500 -10.798656 -0.595012 -0.005290 98.083967 -2.734018 5.338175 -11.875709 21.690441 -2.999802 0.555144 4.103245 2.282659 -8.444506 -50.775038 7.252000 7.125000 0.000000 0.000000 74.937900 -74.985100 -59.456600 
